<svg width="21" height="20" viewBox="0 0 21 20" fill="none" xmlns="http://www.w3.org/2000/svg">
<g clip-path="url(#clip0_2132_2252)">
<path d="M19.508 9.49962C19.508 6.98016 18.5072 4.5639 16.7256 2.78238C14.9441 1.00085 12.5279 4.05551e-06 10.0084 4.05551e-06C7.61633 -0.00220499 5.31147 0.898113 3.55423 2.52112C1.79698 4.14412 0.716729 6.37033 0.529241 8.75505C0.341754 11.1398 1.06084 13.5074 2.54286 15.3851C4.02487 17.2628 6.16072 18.5122 8.52375 18.8839V12.245H6.11356V9.49962H8.52511V7.40699C8.52511 5.02666 9.94326 3.71028 12.1132 3.71028C13.1528 3.71028 14.2398 3.8962 14.2398 3.8962V6.23447H13.0415C11.8608 6.23447 11.4944 6.96729 11.4944 7.71776V9.49962H14.1285L13.7078 12.245H11.4931V18.8839C13.7275 18.53 15.7624 17.3905 17.2316 15.6702C18.7009 13.95 19.5081 11.7619 19.508 9.49962Z" fill="#1877F2"/>
<path d="M13.7064 12.2451L14.1271 9.49968H11.493V7.71782C11.493 6.96735 11.8594 6.23452 13.0401 6.23452H14.2384V3.89491C14.2384 3.89491 13.1514 3.70898 12.1119 3.70898C9.94051 3.70898 8.52371 5.02536 8.52371 7.40569V9.49968H6.11353V12.2451H8.52507V18.8839C9.50879 19.0388 10.5107 19.0388 11.4944 18.8839V12.2451H13.7064Z" fill="white"/>
</g>
<defs>
<clipPath id="clip0_2132_2252">
<rect width="20" height="20" fill="white" transform="translate(0.5)"/>
</clipPath>
</defs>
</svg>
