<svg width="21" height="20" viewBox="0 0 21 20" fill="none" xmlns="http://www.w3.org/2000/svg">
<g clip-path="url(#clip0_2132_2281)">
<path d="M19.6739 9.71046C19.6739 8.93159 19.612 8.36322 19.4782 7.7738H10.7724V11.2892H15.8825C15.7795 12.1629 15.2232 13.4786 13.9868 14.3626L13.9695 14.4803L16.7221 16.6588L16.9128 16.6783C18.6642 15.0258 19.6739 12.5944 19.6739 9.71046Z" fill="#4285F4"/>
<path d="M10.7724 18.9729C13.2759 18.9729 15.3776 18.1308 16.9128 16.6783L13.9868 14.3627C13.2038 14.9205 12.1529 15.31 10.7724 15.31C8.32038 15.31 6.23926 13.6575 5.49739 11.3735L5.38865 11.383L2.52646 13.6459L2.48903 13.7522C4.01381 16.8467 7.14583 18.9729 10.7724 18.9729Z" fill="#34A853"/>
<path d="M5.4974 11.3736C5.30165 10.7842 5.18836 10.1526 5.18836 9.50004C5.18836 8.84742 5.30165 8.21592 5.4871 7.62651L5.48191 7.50098L2.58385 5.20166L2.48903 5.24774C1.8606 6.53185 1.5 7.97386 1.5 9.50004C1.5 11.0262 1.8606 12.4682 2.48903 13.7523L5.4974 11.3736Z" fill="#FBBC05"/>
<path d="M10.7724 3.68991C12.5135 3.68991 13.688 4.45826 14.3577 5.10036L16.9746 2.49004C15.3674 0.963864 13.2759 0.0270996 10.7724 0.0270996C7.14583 0.0270996 4.01381 2.15321 2.48903 5.24766L5.48709 7.62643C6.23926 5.34242 8.32038 3.68991 10.7724 3.68991Z" fill="#EB4335"/>
</g>
<defs>
<clipPath id="clip0_2132_2281">
<rect x="1.5" width="18.1739" height="19" rx="9.08696" fill="white"/>
</clipPath>
</defs>
</svg>
